<svg width="41" height="33" viewBox="0 0 41 33" fill="none" xmlns="http://www.w3.org/2000/svg">
<path d="M20.5 0.5C22.6148 0.5 24.6092 1.26994 26.167 2.68066L26.4727 2.97168L27.3135 3.8125C30.6051 7.10258 30.6051 12.4589 27.3135 15.749L23.2559 19.8057L22.9014 20.1592L23.2559 20.5127L25.3916 22.6475L25.7451 23.001L28.2822 20.4639C31.063 17.6845 35.5784 17.6215 38.3408 20.3008C39.7334 21.6519 40.5 23.4619 40.5 25.3994C40.4999 27.3367 39.7332 29.1461 38.3408 30.4971C37.0316 31.7646 35.3827 32.4629 33.4326 32.4629C31.4841 32.4628 29.6558 31.7069 28.2822 30.334L26.0986 28.1504L25.7451 27.7979L25.3916 28.1504L23.0557 30.4854C22.3717 31.169 21.4635 31.5449 20.4951 31.5449C19.5279 31.5448 18.622 31.1676 17.9375 30.4834H17.9385L15.6113 28.1533L15.2578 27.7988L14.9043 28.1533L12.6318 30.4238C11.2912 31.7637 9.50902 32.5 7.60645 32.5C5.70393 32.4999 3.92159 31.7637 2.58105 30.4238C1.23803 29.0813 0.50005 27.3 0.5 25.4014C0.5 23.5026 1.23854 21.7209 2.58203 20.376L2.58105 20.375C3.9661 18.9909 5.78437 18.2999 7.60645 18.2998C9.4287 18.2998 11.2467 18.9916 12.6318 20.376L14.9043 22.6475L15.2578 23.001L15.6113 22.6475L17.7471 20.5127L18.1006 20.1592L17.7471 19.8057L13.6885 15.749C10.3969 12.4589 10.3969 7.10258 13.6885 3.8125L14.5303 2.97168C16.1237 1.37695 18.2439 0.5 20.5 0.5ZM7.60645 21.6885C6.61509 21.6886 5.68168 22.0745 4.98145 22.7744C4.28112 23.4744 3.89453 24.4082 3.89453 25.3994C3.89465 26.39 4.28122 27.3261 4.98242 28.0244C5.68242 28.7214 6.61532 29.1073 7.60645 29.1074C8.59707 29.1074 9.53149 28.724 10.2324 28.0234L12.5039 25.7529L12.8574 25.3994L12.5039 25.0449L10.2324 22.7744C9.53211 22.0744 8.59795 21.6885 7.60645 21.6885ZM35.9785 22.7363C34.5196 21.3216 32.1459 21.4038 30.6846 22.8643L28.5 25.0479L28.1465 25.4014L28.5 25.7549L30.6846 27.9375C31.4446 28.6972 32.4428 29.081 33.4326 29.0811C34.0178 29.0811 34.6015 28.9466 35.1299 28.6738V28.8877L35.9775 28.0664C36.7053 27.3618 37.1074 26.4131 37.1074 25.4014C37.1074 24.3898 36.7059 23.4409 35.9785 22.7363ZM20.1221 22.9326L18.0088 25.0479L17.6553 25.4014L18.0088 25.7549L19.3623 27.1094L19.7871 27.5342L19.6494 27.6729L20.2695 27.9834L20.2744 27.9854L20.5537 27.5967L20.8467 27.8896L22.9844 25.7529L23.3389 25.3994L22.9844 25.0449L21.0049 23.0664L20.9814 23.043L20.9551 23.0225L20.7793 22.8887L20.4316 22.624L20.1221 22.9326ZM20.502 3.89062C19.1541 3.89069 17.8842 4.41798 16.9316 5.37012L16.0908 6.21094H16.0898C14.1219 8.18059 14.1222 11.3829 16.0908 13.3506L20.1484 17.4072L20.502 17.7607L20.8555 17.4072L22.3408 15.9229L24.9141 13.3506C26.8821 11.381 26.8826 8.17868 24.9141 6.21094L24.0732 5.37012C23.12 4.41491 21.8494 3.89062 20.502 3.89062Z" fill="white" stroke="black"/>
</svg>
