<svg width="96" height="26" viewBox="0 0 96 26" fill="none" xmlns="http://www.w3.org/2000/svg">
<path d="M1.33 17.3199V4.6299C1.33 2.5999 1.46 1.6999 0 1.6999V1.3999H9.53V1.6999C8.1 1.6999 8.16 2.2299 8.16 4.6299V17.5499C8.16 21.4799 10.23 23.1499 13.39 23.1499C16.95 23.1499 18.75 20.6799 18.75 17.5499V8.8899C18.75 6.1599 17.88 1.6999 14.72 1.6999V1.3999H23.45L23.48 1.6999C19.75 1.6999 19.05 6.1599 19.05 8.8899V17.5499C19.05 21.9499 16.12 25.1399 10.26 25.1399C5.73 25.1399 1.33 22.7399 1.33 17.3099V17.3199Z" fill="#3B3B42"/>
<path d="M38.4301 14.3199C37.3001 15.6199 35.3701 15.7499 34.0301 14.6499C33.4001 14.0499 32.9601 13.3499 32.9601 12.5799C32.9601 12.1499 31.8901 12.3799 30.5301 14.4499V21.0799C30.5301 22.9099 30.7001 24.2399 31.9001 24.5799V24.8499H23.5701V24.5799C24.8401 24.2099 24.8701 22.7799 24.8701 21.0799V12.9599C24.8701 11.7899 24.4701 11.3299 23.1001 10.8299V10.5599L30.5301 9.15991V13.8199C32.8901 10.2599 33.8901 9.85991 34.8901 9.38991C35.8201 8.95991 37.2201 9.15991 38.0901 9.91991C39.3901 11.0499 39.5601 13.0499 38.4201 14.3199H38.4301Z" fill="#3B3B42"/>
<path d="M58.88 16.89C58.88 23.48 54.48 25.15 50.22 25.15C47.59 25.15 46.02 24.52 45.12 23.68C44.05 24.38 40.49 25.21 40.49 24.68V3.8C40.49 2.67 40.16 2.17 38.79 1.67V1.4L46.12 0V11.69C47.09 10.02 48.75 9.16 51.85 9.16C56.45 9.16 58.88 12.76 58.88 16.89ZM52.19 17.36C52.19 13.46 51.26 10.17 48.86 10.17C46.63 10.17 46.13 12.9 46.13 15.47V19C46.13 22.8 46.9 24.86 48.89 24.86C50.76 24.86 52.19 22.7 52.19 17.37V17.36Z" fill="#3B3B42"/>
<path d="M77.3301 22.72C76.8601 24.19 75.1301 25.15 73.0301 25.15C73.0301 25.15 69.3301 25.15 69.0301 22.15C68.6001 23.88 66.9001 25.15 64.5301 25.15C63.2601 25.15 60.3701 24.58 60.3701 21.75C60.3701 18.42 63.0701 17.79 69.0001 16.39V14.26C69.0001 10.8 67.0401 8.93002 64.7401 10.13C64.7401 10.13 64.0101 10.56 65.1401 10.96C65.7101 11.16 66.0701 11.63 66.3401 12.23C66.8401 13.46 66.2701 14.79 65.0401 15.33C63.8401 15.8 62.4801 15.23 61.9801 14.03C61.6501 13.16 61.8101 12.16 62.3801 11.57C62.7801 11.14 63.3801 10.54 64.6101 9.87002C66.1101 9.07002 67.7401 9.17002 67.7401 9.17002C72.1001 9.17002 74.5301 11.9 74.5301 15.83V20.79C74.5301 20.79 74.5301 23.19 76.1301 23.12C76.1301 23.12 76.9601 23.12 77.1301 22.55L77.3301 22.72ZM69.0001 16.72C66.2701 17.32 66.3001 19.35 66.3001 20.92C66.3001 20.92 66.2701 23.12 67.6001 23.12C68.1701 23.12 68.6301 22.65 69.0001 21.85V16.72Z" fill="#3B3B42"/>
<path d="M95.42 24.5799V24.8499H87.09V24.5799C88.36 24.2099 88.42 22.7499 88.42 21.0499V14.3599C88.42 12.4599 87.72 11.5599 86.12 11.5599C85.39 11.5599 84.62 12.1599 84.16 12.8599V21.0899C84.16 22.9199 84.33 24.2499 85.53 24.5899V24.8599H77.2V24.5899C78.47 24.2199 78.5 22.8199 78.5 21.0899V12.9599C78.5 11.7899 78.13 11.3299 76.77 10.8299V10.5599L84.16 9.15991V12.3899C85.03 10.6299 86.79 9.15991 88.59 9.15991C91.25 9.15991 94.05 10.2299 94.05 14.2199V21.0499C94.05 22.8799 94.25 24.2799 95.42 24.5799Z" fill="#3B3B42"/>
</svg>
