<svg width="70" height="26" viewBox="0 0 70 26" fill="none" xmlns="http://www.w3.org/2000/svg">
<path d="M12.7875 24.5977C12.6075 24.8077 12.3975 24.9477 12.1575 25.0077C11.9175 25.0677 11.6775 25.0977 11.4575 25.0977C11.1975 25.0977 10.9275 25.0577 10.6475 24.9877C10.6175 24.8777 10.5975 24.7677 10.5675 24.6777C10.5375 24.5877 10.5175 24.4877 10.4875 24.3877C10.3475 23.9577 10.2375 23.5377 10.1575 23.1077C10.0775 22.6777 10.0375 22.2477 10.0375 21.7877C10.0375 21.5777 10.0275 21.3577 9.9975 21.1277C9.9675 20.8977 9.9575 20.6777 9.9375 20.4477C9.9075 20.0877 9.8975 19.7277 9.8875 19.3677C9.8875 19.0077 9.8675 18.6477 9.8575 18.2877C9.8275 17.6377 9.8075 16.9877 9.7875 16.3477C9.7675 15.6977 9.7575 15.0577 9.7575 14.4077C9.7575 13.8677 9.7575 13.3377 9.7775 12.8077C9.7875 12.2777 9.7975 11.7577 9.8175 11.2277C9.8175 11.1477 9.8175 11.0777 9.8175 10.9977C9.8175 10.9177 9.8175 10.8277 9.8175 10.7277H2.9775C2.9875 10.9577 2.9975 11.1777 3.0075 11.3977C3.0175 11.6177 3.0275 11.8377 3.0575 12.0677C3.0775 12.5077 3.1075 12.9477 3.1275 13.3977C3.1475 13.8477 3.1675 14.2977 3.1975 14.7277C3.2175 15.1677 3.2575 15.5977 3.2875 16.0377C3.3275 16.4677 3.3575 16.9077 3.3775 17.3477C3.4575 18.2277 3.5075 19.0977 3.5375 19.9677C3.5675 20.8377 3.5375 21.7077 3.4675 22.5877C3.4375 22.9877 3.3975 23.3877 3.3175 23.7777C3.2375 24.1677 3.1175 24.5577 2.9375 24.9377C2.8775 25.0777 2.7775 25.1877 2.6575 25.2877C2.5275 25.3777 2.3975 25.4177 2.2475 25.3877C2.1875 25.3777 2.1275 25.3477 2.0675 25.2977C2.0075 25.2477 1.9575 25.1977 1.9075 25.1477C1.5775 24.7877 1.3575 24.3877 1.2275 23.9677C1.0975 23.5377 1.0075 23.1077 0.9475 22.6477C0.8475 21.7077 0.7475 20.7777 0.6575 19.8677C0.5675 18.9577 0.4675 18.0277 0.3675 17.0877C0.1775 15.2677 0.0675 13.4277 0.0275 11.5777C0.0275 11.2477 0.0275 10.9277 0.0075 10.5877C-0.0025 10.2577 -0.0025 9.9277 0.0075 9.5977C0.0175 8.5877 0.0575 7.5577 0.1175 6.5177C0.1475 5.9577 0.1775 5.3977 0.2175 4.8577C0.2575 4.3177 0.2975 3.7677 0.3175 3.2177C0.3375 2.8877 0.3575 2.5677 0.3775 2.2477C0.3875 1.9277 0.4275 1.6077 0.4875 1.2777C0.5075 1.0977 0.5575 0.947704 0.6275 0.797704C0.6975 0.657704 0.7775 0.517704 0.8775 0.377704C0.8975 0.337704 0.9375 0.307704 0.9675 0.297704C1.0075 0.277704 1.0375 0.267704 1.0775 0.247704C1.2275 0.247704 1.3775 0.247704 1.5175 0.257704C1.6575 0.257704 1.7975 0.317704 1.9375 0.417704C1.9575 0.447704 1.9975 0.457704 2.0375 0.467704C2.0775 0.467704 2.1175 0.487704 2.1575 0.517704C2.2575 0.567704 2.3475 0.647704 2.4375 0.747704C2.5275 0.857704 2.5975 0.977704 2.6675 1.1077C2.7275 1.2377 2.7775 1.3777 2.8175 1.5177C2.8575 1.6577 2.8675 1.7877 2.8575 1.9077C2.8475 2.1077 2.8475 2.3077 2.8575 2.5077C2.8675 2.7077 2.8775 2.9177 2.8775 3.1277V4.4677C2.8775 4.9177 2.8775 5.3577 2.8975 5.8077C2.8975 6.4477 2.8975 7.0877 2.8975 7.7277C2.8975 8.3677 2.9175 9.0077 2.9275 9.6477C2.9275 9.6777 2.9275 9.6977 2.9275 9.7277C2.9275 9.7577 2.9275 9.7777 2.9275 9.8077C3.5075 9.7677 4.0775 9.7277 4.6475 9.6977C5.2175 9.6577 5.7875 9.6277 6.3475 9.6077C6.9275 9.5777 7.4975 9.5777 8.0675 9.5877C8.6375 9.5977 9.2275 9.6077 9.8275 9.6077C9.8375 9.4277 9.8475 9.2677 9.8675 9.1077C9.8775 8.9477 9.8875 8.7977 9.8875 8.6477C9.9075 7.9677 9.9375 7.3077 9.9575 6.6477C9.9775 5.9877 10.0075 5.3277 10.0375 4.6677C10.0575 4.1577 10.0975 3.6477 10.1375 3.1377C10.1775 2.6277 10.2575 2.1277 10.3675 1.6277C10.4175 1.4177 10.4875 1.2077 10.5675 0.997704C10.6475 0.787704 10.7375 0.587704 10.8375 0.387704C10.8975 0.247704 11.0275 0.157704 11.2175 0.117704C11.4075 0.0777036 11.5675 0.0977036 11.7075 0.197704C11.9075 0.337704 12.0775 0.487704 12.2075 0.657704C12.3375 0.827704 12.4275 1.0377 12.4775 1.2877C12.5875 1.9177 12.6675 2.5377 12.7075 3.1677C12.7475 3.7977 12.7875 4.4277 12.8275 5.0677C12.8475 5.4677 12.8775 5.8677 12.8975 6.2577C12.9175 6.6577 12.9275 7.0477 12.9475 7.4477C12.9675 7.8477 12.9875 8.2577 12.9875 8.6677C12.9875 9.0777 12.9875 9.4877 13.0075 9.8877C13.0275 10.3777 13.0475 10.8577 13.0675 11.3477C13.0775 11.8277 13.0875 12.3177 13.1075 12.8077C13.1275 13.3877 13.1575 13.9577 13.1775 14.5377C13.1975 15.1177 13.2175 15.6877 13.2475 16.2677C13.2675 16.7077 13.2975 17.1477 13.3175 17.5977C13.3375 18.0377 13.3575 18.4877 13.3875 18.9177C13.4075 19.6177 13.4175 20.3177 13.4175 21.0177C13.4175 21.7177 13.3775 22.4077 13.3175 23.1177C13.2875 23.4077 13.2375 23.6777 13.1575 23.9377C13.0775 24.1977 12.9475 24.4277 12.7675 24.6377L12.7875 24.5977Z" fill="#3B3B42"/>
<path d="M31.3479 24.5377C31.3479 24.6777 31.2779 24.7977 31.1279 24.9077C30.9879 25.0177 30.8479 25.0977 30.7279 25.1577C30.6279 25.2077 30.5279 25.2577 30.4379 25.3077C30.3479 25.3577 30.2479 25.3777 30.1479 25.3677C29.8579 25.3377 29.5679 25.3377 29.2879 25.3477C28.9979 25.3577 28.7279 25.2877 28.4579 25.1377C28.1779 24.9977 27.9479 24.8177 27.7479 24.5977C27.5479 24.3777 27.3779 24.1277 27.2379 23.8377C27.0079 23.3977 26.8279 22.9577 26.6779 22.5077C26.5279 22.0577 26.3979 21.5977 26.2979 21.1177C26.1879 20.5577 26.0479 20.0077 25.8979 19.4677C25.7379 18.9277 25.5879 18.3877 25.4379 17.8377C25.2779 17.2477 25.1379 16.6577 25.0179 16.0577C24.8979 15.4577 24.7779 14.8677 24.6479 14.2677C24.6479 14.2377 24.6479 14.2177 24.6479 14.1977C24.6479 14.1777 24.6479 14.1577 24.6479 14.1277C24.6179 13.9877 24.5979 13.8877 24.5679 13.8077C24.5379 13.7277 24.5079 13.6777 24.4679 13.6377C24.4279 13.5977 24.3679 13.5777 24.2879 13.5677C24.2079 13.5677 24.1079 13.5677 23.9679 13.5677C22.7879 13.5677 21.6079 13.5077 20.4379 13.3977C20.3779 13.3877 20.3079 13.3777 20.2279 13.3977C20.1479 13.3977 20.0579 13.3977 19.9479 13.3977C19.7879 13.4077 19.6679 13.4177 19.5879 13.3977C19.5079 13.3977 19.4579 13.3977 19.4079 13.4277C19.3679 13.4577 19.3279 13.5077 19.2879 13.5977C19.2479 13.6877 19.1979 13.8277 19.1179 14.0277C18.7079 15.0377 18.2879 16.0577 17.8679 17.0577C17.4479 18.0677 17.0279 19.0777 16.6179 20.0877C16.4679 20.4477 16.3379 20.8177 16.2179 21.1877C16.0979 21.5577 15.9679 21.9277 15.8279 22.3077C15.7679 22.5077 15.6779 22.6877 15.5779 22.8477C15.4679 23.0077 15.3279 23.1577 15.1579 23.2977C15.0879 23.3577 15.0079 23.4177 14.9279 23.4577C14.8479 23.4977 14.7579 23.4877 14.6579 23.4277C14.5579 23.3677 14.4979 23.2877 14.4779 23.1977C14.4579 23.1077 14.4579 23.0077 14.4779 22.9077C14.6179 22.3677 14.7479 21.8377 14.8779 21.2977C15.0079 20.7677 15.1679 20.2377 15.3379 19.7077C15.7779 18.3377 16.2579 16.9977 16.7979 15.6777C17.3279 14.3577 17.8379 13.0077 18.3079 11.6477C18.5679 10.8677 18.8579 10.1177 19.1679 9.38766C19.4779 8.65767 19.7879 7.91766 20.0979 7.15766C20.4079 6.41766 20.7179 5.68766 21.0179 4.95766C21.3179 4.22766 21.6179 3.50766 21.9179 2.77766L22.4079 1.45766C22.4579 1.35766 22.4979 1.26766 22.5179 1.17766C22.5379 1.08766 22.6079 1.01766 22.7079 0.947664C22.8879 0.847664 23.0379 0.737664 23.1879 0.627664C23.3379 0.517664 23.4779 0.397664 23.6279 0.287664C23.7579 0.197664 23.9079 0.127664 24.0779 0.0576641C24.3079 0.00766407 24.5179 -0.0123359 24.7379 0.00766407C24.9479 0.0276641 25.0779 0.147664 25.1179 0.377664C25.3079 0.927664 25.5179 1.59766 25.7579 2.36766C25.9679 3.02766 26.2179 3.84766 26.4879 4.82766C26.7679 5.80766 27.0779 6.94766 27.4479 8.26766C27.6279 9.15766 27.8079 10.0377 27.9979 10.9077C28.1879 11.7777 28.4079 12.6477 28.6579 13.5077C28.8079 14.0377 28.9379 14.5677 29.0479 15.1077C29.1579 15.6477 29.2779 16.1877 29.4079 16.7277C29.7679 18.0777 30.1079 19.3077 30.4079 20.4077C30.5379 20.8877 30.6579 21.3477 30.7779 21.8077C30.8979 22.2677 31.0079 22.6777 31.0979 23.0577C31.1879 23.4377 31.2679 23.7477 31.3179 24.0177C31.3679 24.2777 31.3879 24.4477 31.3879 24.5077L31.3479 24.5377ZM23.1779 4.28766C22.8779 4.93766 22.5779 5.56766 22.2979 6.17766C22.0179 6.78766 21.7279 7.38766 21.4479 7.98766C20.8679 9.20766 20.3679 10.4177 19.9479 11.6377C19.9179 11.7077 19.8979 11.7877 19.8679 11.8577C19.8379 11.9277 19.8379 12.0077 19.8679 12.1077C20.1579 12.0777 20.4379 12.0577 20.7179 12.0277C20.9979 11.9977 21.2679 11.9877 21.5479 11.9877C21.9079 11.9777 22.2779 11.9677 22.6379 11.9877C22.9979 11.9877 23.3679 11.9877 23.7279 11.9877C23.9579 11.9877 24.0879 11.9677 24.1179 11.9177C24.1579 11.8777 24.1579 11.7477 24.1379 11.5277C24.0279 10.6277 23.9079 9.72766 23.7979 8.82766C23.6879 7.92766 23.5679 7.03766 23.4579 6.12766C23.4179 5.83766 23.3879 5.53766 23.3479 5.23766C23.3079 4.92766 23.2579 4.60766 23.1779 4.26766V4.28766Z" fill="#3B3B42"/>
<path d="M34.5878 7.62752C34.6078 7.56752 34.6378 7.50752 34.6678 7.46752C34.6878 7.42752 34.7178 7.37752 34.7478 7.32752C34.9578 6.76752 35.1978 6.22752 35.4678 5.71752C35.7378 5.20752 36.0178 4.69752 36.3078 4.18752C36.9578 3.00752 37.7978 1.97752 38.8278 1.08752C39.2678 0.697519 39.7478 0.407519 40.2778 0.207519C40.6778 0.0475186 41.0678 0.0375186 41.4478 0.207519C41.8278 0.367519 42.1178 0.627519 42.3278 0.987519C42.5278 1.34752 42.6678 1.71752 42.7478 2.09752C42.8278 2.47752 42.8878 2.85752 42.9278 3.26752C42.9778 3.72752 42.9678 4.17752 42.8978 4.60752C42.8278 5.03752 42.7178 5.47752 42.5678 5.91752C42.5378 5.97752 42.5078 6.04752 42.4778 6.10752C42.4378 6.16752 42.3978 6.23752 42.3678 6.29752C42.0378 6.87752 41.6678 7.39752 41.2278 7.86752C40.7978 8.33752 40.3178 8.77752 39.8078 9.17752C39.3478 9.53752 38.8578 9.86752 38.3578 10.1575C37.8578 10.4475 37.3278 10.6775 36.7578 10.8575C36.4778 10.9475 36.2078 11.0275 35.9278 11.1075C35.6478 11.1875 35.3678 11.2775 35.0778 11.3575C35.0678 11.3675 35.0178 11.3975 34.9478 11.4475C34.9578 11.5875 34.9678 11.7275 34.9878 11.8575C34.9978 11.9975 35.0178 12.1375 35.0278 12.2675C35.0478 12.5675 35.0778 12.8675 35.1078 13.1775C35.1278 13.4875 35.1678 13.7875 35.2178 14.0875C35.2778 14.6275 35.3578 15.1575 35.4578 15.6875C35.5478 16.2175 35.6278 16.7475 35.6878 17.2875C35.7678 17.8175 35.8278 18.3475 35.8778 18.8775C35.9278 19.4075 35.9878 19.9475 36.0478 20.4875C36.0678 20.8175 36.0978 21.1375 36.1178 21.4675C36.1378 21.7975 36.1478 22.1175 36.1478 22.4475C36.1478 22.6575 36.1478 22.8775 36.1278 23.0975C36.1178 23.3175 36.0878 23.5375 36.0378 23.7475C35.9878 23.9375 35.9178 24.1175 35.8378 24.2975C35.7578 24.4775 35.6778 24.6675 35.6078 24.8475C35.5778 24.9075 35.5578 24.9675 35.5278 25.0275C35.4978 25.0875 35.4678 25.1475 35.4478 25.2075C35.3678 25.3675 35.2578 25.4175 35.1078 25.3575C34.9678 25.2975 34.8378 25.2275 34.7178 25.1475C34.5978 25.0675 34.4978 24.9575 34.4078 24.8075C34.1978 24.4275 34.0378 24.0375 33.9278 23.6375C33.8178 23.2275 33.7478 22.8075 33.7078 22.3675C33.6778 22.0875 33.6378 21.8275 33.5778 21.5575C33.5178 21.2975 33.4678 21.0275 33.4278 20.7475C33.3678 20.3475 33.3078 19.9475 33.2678 19.5375C33.2278 19.1275 33.1678 18.7175 33.1078 18.3075L32.9978 17.5175C32.9478 17.1175 32.8978 16.7075 32.8478 16.3075C32.7978 15.8975 32.7578 15.4975 32.7178 15.0975C32.6678 14.6875 32.6278 14.2675 32.5978 13.8575C32.5678 13.4475 32.5378 13.0275 32.5178 12.6175C32.4578 11.9375 32.4078 11.2675 32.3678 10.5975C32.3278 9.92752 32.2878 9.25752 32.2378 8.57752C32.1978 7.97752 32.1578 7.36752 32.1278 6.76752C32.0878 6.15752 32.0578 5.55752 32.0378 4.95752C32.0078 4.72752 32.0078 4.50752 32.0078 4.26752C32.0078 4.03752 32.0278 3.80752 32.0378 3.57752C32.0478 3.47752 32.0678 3.36752 32.1078 3.25752C32.1378 3.14752 32.1778 3.03752 32.2078 2.93752C32.2578 2.78752 32.3878 2.70752 32.5878 2.70752C33.1378 2.71752 33.5278 2.98752 33.7578 3.49752C33.8478 3.73752 33.9178 3.98752 33.9878 4.26752C34.0478 4.57752 34.1178 4.88752 34.1778 5.19752C34.2378 5.50752 34.2978 5.81752 34.3678 6.12752C34.4078 6.33752 34.4378 6.55752 34.4678 6.76752C34.4978 6.97752 34.5378 7.19752 34.5678 7.40752C34.5778 7.45752 34.6078 7.53752 34.6478 7.64752L34.5878 7.62752ZM34.8278 10.0375C35.0678 9.93752 35.2878 9.83752 35.4978 9.74752C35.7078 9.65752 35.9078 9.54752 36.1078 9.43752C36.4678 9.23752 36.8278 9.03752 37.1778 8.82752C37.5278 8.61752 37.8778 8.40752 38.2278 8.19752C38.4078 8.09752 38.5678 7.98752 38.7078 7.85752C38.8478 7.73752 38.9978 7.59752 39.1478 7.46752C39.3778 7.26752 39.5778 7.05752 39.7478 6.82752C39.9278 6.59752 40.0978 6.36752 40.2778 6.11752C40.4178 5.90752 40.5378 5.68752 40.6478 5.47752C40.7578 5.26752 40.8478 5.03752 40.9178 4.79752C41.0478 4.43752 41.1278 4.05752 41.1578 3.67752C41.1978 3.29752 41.2178 2.90752 41.2378 2.51752C41.2378 2.41752 41.2378 2.31752 41.2178 2.22752C41.2078 2.13752 41.1878 2.03752 41.1578 1.93752C41.1178 1.72752 40.9878 1.58752 40.7678 1.52752C40.6378 1.50752 40.5278 1.50752 40.4278 1.52752C40.3278 1.55752 40.2278 1.59752 40.1278 1.64752C39.7978 1.85752 39.4978 2.08752 39.2278 2.32752C38.8878 2.61752 38.5778 2.92752 38.2878 3.27752C37.9978 3.61752 37.7278 3.97752 37.4778 4.33752C37.3678 4.49752 37.2478 4.66752 37.1378 4.82752C37.0278 4.98752 36.9078 5.15752 36.7978 5.33752C36.4078 5.93752 36.0578 6.55752 35.7578 7.19752C35.4478 7.83752 35.1578 8.47752 34.8678 9.13752C34.8078 9.27752 34.7778 9.41752 34.7778 9.55752C34.7778 9.69752 34.7978 9.85752 34.8378 10.0375H34.8278Z" fill="#3B3B42"/>
<path d="M46.2475 7.62752C46.2675 7.56752 46.2975 7.50752 46.3275 7.46752C46.3475 7.42752 46.3775 7.37752 46.4075 7.32752C46.6175 6.76752 46.8575 6.22752 47.1275 5.71752C47.3975 5.20752 47.6775 4.69752 47.9675 4.18752C48.6175 3.00752 49.4575 1.97752 50.4875 1.08752C50.9275 0.697519 51.4075 0.407519 51.9375 0.207519C52.3375 0.0475186 52.7275 0.0375186 53.1075 0.207519C53.4875 0.367519 53.7775 0.627519 53.9875 0.987519C54.1875 1.34752 54.3275 1.71752 54.4075 2.09752C54.4875 2.47752 54.5475 2.85752 54.5875 3.26752C54.6375 3.72752 54.6275 4.17752 54.5575 4.60752C54.4875 5.03752 54.3775 5.47752 54.2275 5.91752C54.1975 5.97752 54.1675 6.04752 54.1375 6.10752C54.0975 6.16752 54.0575 6.23752 54.0275 6.29752C53.6975 6.87752 53.3275 7.39752 52.8875 7.86752C52.4575 8.33752 51.9775 8.77752 51.4675 9.17752C51.0075 9.53752 50.5175 9.86752 50.0175 10.1575C49.5175 10.4475 48.9875 10.6775 48.4175 10.8575C48.1375 10.9475 47.8675 11.0275 47.5875 11.1075C47.3075 11.1875 47.0275 11.2775 46.7375 11.3575C46.7275 11.3675 46.6775 11.3975 46.6075 11.4475C46.6175 11.5875 46.6275 11.7275 46.6475 11.8575C46.6575 11.9975 46.6775 12.1375 46.6875 12.2675C46.7075 12.5675 46.7375 12.8675 46.7675 13.1775C46.7875 13.4875 46.8275 13.7875 46.8775 14.0875C46.9375 14.6275 47.0175 15.1575 47.1175 15.6875C47.2075 16.2175 47.2875 16.7475 47.3475 17.2875C47.4275 17.8175 47.4875 18.3475 47.5375 18.8775C47.5875 19.4075 47.6475 19.9475 47.7075 20.4875C47.7275 20.8175 47.7575 21.1375 47.7775 21.4675C47.7975 21.7975 47.8075 22.1175 47.8075 22.4475C47.8075 22.6575 47.8075 22.8775 47.7875 23.0975C47.7775 23.3175 47.7475 23.5375 47.6975 23.7475C47.6475 23.9375 47.5775 24.1175 47.4975 24.2975C47.4175 24.4775 47.3375 24.6675 47.2675 24.8475C47.2375 24.9075 47.2175 24.9675 47.1875 25.0275C47.1575 25.0875 47.1275 25.1475 47.1075 25.2075C47.0275 25.3675 46.9175 25.4175 46.7675 25.3575C46.6275 25.2975 46.4975 25.2275 46.3775 25.1475C46.2575 25.0675 46.1575 24.9575 46.0675 24.8075C45.8575 24.4275 45.6975 24.0375 45.5875 23.6375C45.4775 23.2275 45.4075 22.8075 45.3675 22.3675C45.3375 22.0875 45.2975 21.8275 45.2375 21.5575C45.1775 21.2975 45.1275 21.0275 45.0875 20.7475C45.0275 20.3475 44.9675 19.9475 44.9275 19.5375C44.8875 19.1275 44.8275 18.7175 44.7675 18.3075L44.6575 17.5175C44.6075 17.1175 44.5575 16.7075 44.5075 16.3075C44.4575 15.8975 44.4175 15.4975 44.3775 15.0975C44.3275 14.6875 44.2875 14.2675 44.2575 13.8575C44.2275 13.4475 44.1975 13.0275 44.1775 12.6175C44.1175 11.9375 44.0675 11.2675 44.0275 10.5975C43.9875 9.92752 43.9475 9.25752 43.8975 8.57752C43.8575 7.97752 43.8175 7.36752 43.7875 6.76752C43.7475 6.15752 43.7175 5.55752 43.6975 4.95752C43.6675 4.72752 43.6675 4.50752 43.6675 4.26752C43.6675 4.03752 43.6875 3.80752 43.6975 3.57752C43.7075 3.47752 43.7275 3.36752 43.7675 3.25752C43.7975 3.14752 43.8375 3.03752 43.8675 2.93752C43.9175 2.78752 44.0475 2.70752 44.2475 2.70752C44.7975 2.71752 45.1875 2.98752 45.4175 3.49752C45.5075 3.73752 45.5775 3.98752 45.6475 4.26752C45.7075 4.57752 45.7775 4.88752 45.8375 5.19752C45.8975 5.50752 45.9575 5.81752 46.0275 6.12752C46.0675 6.33752 46.0975 6.55752 46.1275 6.76752C46.1575 6.97752 46.1975 7.19752 46.2275 7.40752C46.2375 7.45752 46.2675 7.53752 46.3075 7.64752L46.2475 7.62752ZM46.4875 10.0375C46.7275 9.93752 46.9475 9.83752 47.1575 9.74752C47.3675 9.65752 47.5675 9.54752 47.7675 9.43752C48.1275 9.23752 48.4875 9.03752 48.8375 8.82752C49.1875 8.61752 49.5375 8.40752 49.8875 8.19752C50.0675 8.09752 50.2275 7.98752 50.3675 7.85752C50.5075 7.73752 50.6575 7.59752 50.8075 7.46752C51.0375 7.26752 51.2375 7.05752 51.4075 6.82752C51.5875 6.59752 51.7575 6.36752 51.9375 6.11752C52.0775 5.90752 52.1975 5.68752 52.3075 5.47752C52.4175 5.26752 52.5075 5.03752 52.5775 4.79752C52.7075 4.43752 52.7875 4.05752 52.8175 3.67752C52.8575 3.29752 52.8775 2.90752 52.8875 2.51752C52.8875 2.41752 52.8875 2.31752 52.8675 2.22752C52.8575 2.13752 52.8375 2.03752 52.8075 1.93752C52.7675 1.72752 52.6375 1.58752 52.4175 1.52752C52.2875 1.50752 52.1775 1.50752 52.0775 1.52752C51.9775 1.55752 51.8775 1.59752 51.7775 1.64752C51.4475 1.85752 51.1475 2.08752 50.8775 2.32752C50.5375 2.61752 50.2275 2.92752 49.9375 3.27752C49.6475 3.61752 49.3775 3.97752 49.1275 4.33752C49.0175 4.49752 48.8975 4.66752 48.7875 4.82752C48.6775 4.98752 48.5575 5.15752 48.4475 5.33752C48.0575 5.93752 47.7075 6.55752 47.4075 7.19752C47.0975 7.83752 46.8075 8.47752 46.5175 9.13752C46.4575 9.27752 46.4275 9.41752 46.4275 9.55752C46.4275 9.69752 46.4475 9.85752 46.4875 10.0375Z" fill="#3B3B42"/>
<path d="M65.5473 10.0376L65.3173 10.5476C65.1273 11.0376 64.9373 11.5176 64.7573 12.0076C64.5673 12.4876 64.3773 12.9676 64.1973 13.4476C63.9473 14.1276 63.5673 14.7476 63.0473 15.3076C62.8373 15.5476 62.5873 15.7176 62.3173 15.8376C62.0373 15.9476 61.7573 16.0276 61.4573 16.0776C61.3973 16.1076 61.3273 16.1176 61.2473 16.1176C61.1673 16.1176 61.1073 16.1176 61.0373 16.1376C60.5573 16.1976 60.1473 16.1376 59.7873 15.9476C59.4273 15.7576 59.0973 15.4976 58.7973 15.1776C58.5373 14.8876 58.3173 14.5776 58.1573 14.2476C57.9973 13.9176 57.8573 13.5576 57.7473 13.1876C57.6473 12.8876 57.5773 12.5876 57.5373 12.2776C57.4973 11.9676 57.4573 11.6576 57.4273 11.3276C57.3473 10.6976 57.3373 10.0876 57.3773 9.4876C57.4173 8.8876 57.4573 8.2776 57.4973 7.6676C57.5373 7.2176 57.5873 6.7676 57.6473 6.3176C57.7073 5.8676 57.7873 5.4176 57.8773 4.9876C57.9273 4.7376 57.9973 4.4976 58.0873 4.2576C58.1773 4.0176 58.2773 3.7776 58.3873 3.5476C58.4373 3.4676 58.4673 3.4176 58.4773 3.3776C58.4973 3.2776 58.5373 3.1876 58.5873 3.1176C58.6373 3.0376 58.7173 3.0076 58.8273 3.0076C58.9673 2.9976 59.0873 3.0076 59.2073 3.0276C59.3173 3.0576 59.4273 3.1176 59.5273 3.2176C59.6773 3.3776 59.7973 3.5476 59.8873 3.7176C59.9773 3.8876 60.0073 4.0876 59.9773 4.3076C59.9773 4.4076 59.9773 4.4876 59.9973 4.5376C60.0973 5.0776 60.1573 5.6176 60.1673 6.1576C60.1773 6.6976 60.1873 7.2376 60.2073 7.7776C60.2173 8.6176 60.2473 9.4476 60.2973 10.2676C60.3473 11.0876 60.4573 11.9076 60.6373 12.7376C60.6973 12.9976 60.7773 13.2576 60.8673 13.5076C60.9573 13.7576 61.0773 13.9876 61.2273 14.1976C61.2873 14.2776 61.3573 14.3476 61.4273 14.4176C61.4973 14.4876 61.5673 14.5676 61.6473 14.6476C61.8073 14.5076 61.9573 14.3776 62.0973 14.2476C62.2373 14.1176 62.3473 13.9676 62.4373 13.7876C62.5973 13.4576 62.7573 13.1376 62.9073 12.8076C63.0573 12.4776 63.1973 12.1476 63.3173 11.8076C63.5273 11.2576 63.7273 10.7076 63.9073 10.1676C64.0873 9.6276 64.2773 9.0876 64.4773 8.5376C64.9773 7.2176 65.5573 5.9176 66.2273 4.6276C66.3173 4.4476 66.3873 4.2676 66.4373 4.0876C66.4873 3.8976 66.5273 3.7076 66.5673 3.5276C66.6973 2.9976 66.8473 2.4976 67.0373 2.0076C67.2273 1.5176 67.4373 1.0376 67.6773 0.557597C67.7273 0.457597 67.7873 0.387597 67.8573 0.337597C67.9273 0.297597 68.0073 0.257597 68.1073 0.237597C68.2573 0.197597 68.4073 0.167597 68.5473 0.147597C68.6873 0.127597 68.8473 0.137597 69.0073 0.187597C69.1873 0.247597 69.3173 0.337597 69.4173 0.447597C69.5173 0.557597 69.5973 0.687597 69.6573 0.837597C69.7873 1.1176 69.8473 1.3876 69.8673 1.6676C69.8773 1.9476 69.8673 2.2276 69.8473 2.5176C69.7773 3.3576 69.6973 4.1876 69.6173 5.0176C69.5373 5.8476 69.4773 6.6776 69.4073 7.5176C69.3573 8.2076 69.2873 8.8976 69.2073 9.5876C69.1273 10.2776 69.0373 10.9576 68.9373 11.6376C68.8973 11.9176 68.8573 12.1776 68.8173 12.4476C68.7773 12.7076 68.7273 12.9776 68.6773 13.2576C68.6473 13.4576 68.6273 13.6576 68.6073 13.8576C68.5773 14.0576 68.5573 14.2576 68.5273 14.4576C68.4373 14.9976 68.3573 15.5276 68.2773 16.0676C68.1973 16.5976 68.1073 17.1376 68.0073 17.6776C67.9473 18.0176 67.8773 18.3576 67.7973 18.6876C67.7173 19.0276 67.6473 19.3676 67.5673 19.7176C67.3873 20.4676 67.1273 21.1576 66.7773 21.7876C66.4273 22.4176 65.9673 22.9876 65.3873 23.4976C64.6073 24.1776 63.7473 24.6876 62.7973 25.0376C62.4873 25.1476 62.1673 25.2476 61.8573 25.3176C61.5473 25.3976 61.2173 25.4376 60.8773 25.4476C60.3773 25.4776 59.8973 25.4376 59.4273 25.3376C58.9673 25.2376 58.5173 25.0476 58.0973 24.7576C58.0373 24.7176 57.9673 24.6876 57.8873 24.6576C57.8073 24.6276 57.7473 24.5876 57.6773 24.5576C57.4273 24.4076 57.1973 24.2376 56.9773 24.0476C56.7673 23.8576 56.5773 23.6376 56.4173 23.3876C56.1273 22.9876 55.8873 22.5676 55.6873 22.1376C55.4873 21.7076 55.3673 21.2476 55.3273 20.7576C55.2973 20.4976 55.2873 20.2376 55.2773 19.9776C55.2773 19.7176 55.2973 19.4676 55.3573 19.2176C55.4173 18.9076 55.5273 18.6076 55.6873 18.3376C55.8473 18.0576 56.0873 17.8476 56.4073 17.6976C56.5473 17.6376 56.6773 17.6476 56.7973 17.7376C57.0473 17.9276 57.1773 18.1676 57.1873 18.4676C57.1873 18.8676 57.2573 19.2476 57.3873 19.5976C57.5173 19.9476 57.6673 20.2876 57.8473 20.6076C58.0473 20.9876 58.3073 21.2876 58.6373 21.5176C58.9673 21.7476 59.3173 21.9076 59.6873 21.9976C60.0673 22.0876 60.4473 22.0976 60.8573 22.0476C61.2573 21.9876 61.6273 21.8576 61.9673 21.6476C62.7673 21.1476 63.3473 20.4676 63.7173 19.5976C63.8173 19.3976 63.8973 19.1876 63.9473 18.9676C63.9973 18.7476 64.0473 18.5276 64.0973 18.3176C64.2073 17.8376 64.3173 17.3676 64.4073 16.8876C64.4973 16.4076 64.5973 15.9376 64.6973 15.4576C64.8073 14.8276 64.9173 14.2076 65.0173 13.5976C65.1173 12.9876 65.2273 12.3576 65.3373 11.7176L65.5673 10.4176C65.5773 10.3576 65.5873 10.2976 65.5973 10.2476C65.5973 10.1976 65.6173 10.1476 65.6273 10.0976H65.5373L65.5473 10.0376Z" fill="#3B3B42"/>
</svg>
