<svg width="45" height="46" viewBox="0 0 45 46" fill="none" xmlns="http://www.w3.org/2000/svg">
<g clip-path="url(#clip0_518_152)">
<path d="M32.4493 36.7144C31.4832 36.7144 30.7 35.9106 30.7 34.919V19.8384C30.7 18.8468 31.4832 18.043 32.4493 18.043C33.4155 18.043 34.1986 18.8468 34.1986 19.8384V34.9191C34.1986 35.9106 33.4155 36.7144 32.4493 36.7144ZM36.2385 42.8368L41.6769 37.3014C43.6502 35.293 44.7819 32.5052 44.7819 29.653V10.7719C44.7819 4.83229 40.0735 0 34.2861 0H15.9342C13.1472 0 10.5223 1.10924 8.5435 3.12353L3.10501 8.65891C1.13172 10.6673 0 13.455 0 16.3074V35.1884C0 41.128 4.70839 45.9603 10.4957 45.9603H28.8476C31.6348 45.9603 34.2595 44.8511 36.2385 42.8368ZM34.2861 3.59065C38.1444 3.59065 41.2833 6.81215 41.2833 10.7719V29.6529C41.2833 31.5545 40.5288 33.413 39.2133 34.7519L33.7749 40.2874C32.4556 41.6302 30.7058 42.3697 28.8476 42.3697H10.4957C6.63748 42.3697 3.49858 39.1482 3.49858 35.1884V16.3074C3.49858 14.4059 4.25308 12.5473 5.56858 11.2084L11.007 5.67294C12.3263 4.33014 14.0761 3.59065 15.9342 3.59065H34.2861ZM36.3456 11.1777L37.0812 10.442C37.7732 9.75016 37.7876 8.61345 37.1134 7.90331C36.4393 7.19309 35.3316 7.17828 34.6398 7.87025L33.9041 8.60588C32.5074 10.0027 30.6641 10.7719 28.714 10.7719H11.283C10.3168 10.7719 9.53362 11.5757 9.53362 12.5673C9.53362 13.5589 10.3168 14.3627 11.283 14.3627H28.7139C31.5814 14.3626 34.2917 13.2315 36.3456 11.1777Z" fill="white"/>
</g>
<defs>
<clipPath id="clip0_518_152">
<rect width="44.7819" height="45.9603" fill="white"/>
</clipPath>
</defs>
</svg>
