<svg width="45" height="46" viewBox="0 0 45 46" fill="none" xmlns="http://www.w3.org/2000/svg">
<path d="M27.9125 37.8765C27.4637 37.8765 27.0148 37.702 26.6718 37.3525L4.93852 15.2122C2.95308 13.1825 1.61401 10.6247 1.06432 7.81299C1.06272 7.80506 1.06128 7.79713 1.05985 7.78921L0.029671 2.1252C-0.0762717 1.54322 0.105188 0.945049 0.514883 0.526335C0.92441 0.107794 1.5095 -0.078043 2.07899 0.0303401L7.61987 1.0835C7.62762 1.08505 7.63537 1.08643 7.64304 1.08807C10.3936 1.65006 12.8959 3.01872 14.8793 5.04629L36.6104 27.1843C37.298 27.8848 37.2999 29.0224 36.6147 29.7252C35.9294 30.4279 34.8165 30.43 34.129 29.7295L12.3957 7.58933C10.9054 6.06593 9.02847 5.0381 6.96525 4.61413L3.95376 4.04181L4.51356 7.11987C4.92823 9.22912 5.9338 11.1478 7.42214 12.6691L29.1532 34.8074C29.8408 35.5078 29.8426 36.6454 29.1574 37.3482C28.8141 37.7003 28.3633 37.8765 27.9125 37.8765ZM12.0023 43.8982L18.7685 36.9799C19.4549 36.2781 19.4548 35.1405 18.7682 34.439C18.0818 33.7374 16.9689 33.7375 16.2826 34.4393L9.51655 41.3574C8.14596 42.7584 5.91568 42.7584 4.54517 41.3574C3.8812 40.6786 3.5155 39.7763 3.5155 38.8165C3.5155 37.8567 3.8812 36.9543 4.54534 36.2753L11.2675 29.4021C11.9539 28.7002 11.9537 27.5627 11.2673 26.8612C10.5808 26.1597 9.46784 26.1597 8.78144 26.8614L2.05944 33.7345C0.731488 35.0918 8.79438e-05 36.8967 8.79438e-05 38.8164C8.79438e-05 40.7361 0.731404 42.5409 2.05935 43.8983C3.42995 45.2994 5.2303 45.9998 7.03073 45.9998C8.83109 45.9998 10.6316 45.2992 12.0023 43.8982ZM36.1014 19.2576L40.06 15.21C42.0433 13.1826 43.3824 10.6247 43.9322 7.8129C43.9338 7.80497 43.9353 7.79705 43.9367 7.78912L44.9668 2.1252C45.0727 1.54314 44.8912 0.945049 44.4816 0.526335C44.0721 0.107707 43.4871 -0.0779568 42.9175 0.0303401L37.3766 1.08359C37.3688 1.08514 37.3611 1.08652 37.3534 1.08815C34.6029 1.65014 32.1005 3.0188 30.117 5.04655L26.2242 9.02691C25.5378 9.72873 25.538 10.8664 26.2246 11.5678C26.9111 12.2694 28.024 12.2694 28.7102 11.5675L32.6028 7.58735C34.0911 6.06585 35.9681 5.0381 38.0314 4.61413L41.0426 4.04189L40.4827 7.1203C40.068 9.22946 39.0624 11.148 37.5741 12.6694L33.6153 16.7171C32.9289 17.4189 32.9291 18.5566 33.6157 19.258C33.9589 19.6087 34.4085 19.7841 34.8583 19.7841C35.3082 19.784 35.7581 19.6086 36.1014 19.2576ZM42.937 43.8983C44.265 42.5409 44.9963 40.7361 44.9963 38.8164C44.9963 36.9068 44.2726 35.1108 42.9578 33.7558L41.6196 32.2993C40.9551 31.576 39.8427 31.5403 39.1351 32.2195C38.4275 32.8989 38.3926 34.0359 39.0572 34.7593L40.4129 36.2349C40.4254 36.2486 40.4382 36.2622 40.4513 36.2754C41.1153 36.9542 41.481 37.8565 41.481 38.8163C41.481 39.7762 41.1153 40.6786 40.4513 41.3572C39.0865 42.7522 36.8696 42.7583 35.4975 41.375L34.1626 39.9219C33.498 39.1987 32.3857 39.163 31.678 39.8422C30.9704 40.5215 30.9355 41.6586 31.6 42.3819L32.9557 43.8577C32.9684 43.8714 32.9811 43.8849 32.9942 43.8982C34.3648 45.2992 36.1652 45.9998 37.9656 45.9998C39.7659 45.9999 41.5664 45.2993 42.937 43.8983Z" fill="white"/>
</svg>
