<svg width="104" height="104" viewBox="0 0 104 104" fill="none" xmlns="http://www.w3.org/2000/svg">
<rect width="104" height="104" rx="30" fill="#222228"/>
<path d="M67.3046 37.8716C72.2739 45.2811 74.728 53.6388 73.8106 63.2604C73.8067 63.3011 73.7858 63.3385 73.7528 63.363C69.9897 66.1653 66.3438 67.866 62.749 68.9938C62.721 69.0024 62.691 69.0019 62.6633 68.9924C62.6356 68.9829 62.6115 68.9649 62.5944 68.9408C61.7639 67.7689 61.0093 66.5334 60.3482 65.2361C60.3103 65.1596 60.3449 65.0676 60.423 65.0375C61.6215 64.5796 62.7611 64.0307 63.8572 63.3809C63.9436 63.3296 63.9491 63.2041 63.8693 63.1438C63.6367 62.9687 63.4062 62.7846 63.1857 62.6006C63.1444 62.5665 63.0889 62.5598 63.0421 62.5827C55.9257 65.9154 48.13 65.9154 40.9294 62.5827C40.8827 62.5615 40.8271 62.5688 40.787 62.6022C40.567 62.7863 40.336 62.9687 40.1055 63.1438C40.0258 63.2041 40.0324 63.3296 40.1193 63.3809C41.2154 64.0184 42.355 64.5796 43.5518 65.0397C43.6294 65.0698 43.6662 65.1596 43.6277 65.2361C42.9809 66.5351 42.2263 67.7706 41.3804 68.9425C41.3436 68.9899 41.2831 69.0116 41.2259 68.9938C37.6481 67.866 34.0022 66.1653 30.2391 63.363C30.2077 63.3385 30.1852 63.2995 30.1819 63.2587C29.4152 54.9362 30.9777 46.5093 36.6818 37.8699C36.6955 37.847 36.7164 37.8292 36.7406 37.8186C39.5473 36.5123 42.5541 35.5512 45.6968 35.0024C45.754 34.9934 45.8112 35.0202 45.8409 35.0715C46.2292 35.7687 46.6731 36.6629 46.9734 37.3935C50.286 36.8804 53.6503 36.8804 57.0323 37.3935C57.3326 36.6785 57.761 35.7687 58.1477 35.0715C58.1615 35.0461 58.1828 35.0257 58.2087 35.0132C58.2346 35.0008 58.2636 34.997 58.2918 35.0024C61.4361 35.5529 64.443 36.5139 67.2474 37.8186C67.2722 37.8292 67.2925 37.847 67.3046 37.8716ZM48.6575 53.6957C48.6921 51.2353 46.9233 49.1994 44.703 49.1994C42.5008 49.1994 40.749 51.2175 40.749 53.6957C40.749 56.1733 42.5354 58.1913 44.703 58.1913C46.9057 58.1913 48.6575 56.1733 48.6575 53.6957ZM63.2775 53.6957C63.3122 51.2353 61.5434 49.1994 59.3236 49.1994C57.1208 49.1994 55.3691 51.2175 55.3691 53.6957C55.3691 56.1733 57.1555 58.1913 59.3236 58.1913C61.5434 58.1913 63.2775 56.1733 63.2775 53.6957Z" fill="white"/>
</svg>
