<svg width="104" height="104" viewBox="0 0 104 104" fill="none" xmlns="http://www.w3.org/2000/svg">
<rect width="104" height="104" rx="30" fill="#222228"/>
<path d="M42.1419 65.3132V42.1608H34.4532V65.3132H42.1427H42.1419ZM38.2991 39.0002C40.9798 39.0002 42.6486 37.2224 42.6486 35.0006C42.5985 32.7282 40.9798 31 38.3501 31C35.7187 31 34 32.7282 34 35.0004C34 37.2222 35.6683 39 38.2488 39H38.2985L38.2991 39.0002ZM46.3976 65.3132H54.0857V52.3852C54.0857 51.6942 54.1359 51.0013 54.339 50.5077C54.8946 49.1246 56.1596 47.6929 58.2841 47.6929C61.0655 47.6929 62.1788 49.8159 62.1788 52.9286V65.3132H69.8667V52.0383C69.8667 44.9272 66.0741 41.618 61.0157 41.618C56.8685 41.618 55.0471 43.938 54.0351 45.5182H54.0863V42.1616H46.398C46.4984 44.3335 46.3974 65.314 46.3974 65.314L46.3976 65.3132Z" fill="white"/>
</svg>
