<svg width="104" height="104" viewBox="0 0 104 104" fill="none" xmlns="http://www.w3.org/2000/svg">
<rect width="104" height="104" rx="30" fill="#222228"/>
<path d="M73.5546 38.3361C72.1394 38.9457 70.6516 39.3702 69.128 39.599C69.8403 39.4768 70.8884 38.1935 71.3057 37.6741C71.9395 36.8905 72.4226 35.9961 72.7303 35.0361C72.7303 34.9648 72.8015 34.863 72.7303 34.8121C72.6944 34.7924 72.6542 34.7822 72.6133 34.7822C72.5724 34.7822 72.5322 34.7924 72.4963 34.8121C70.8418 35.7088 69.0811 36.3932 67.2556 36.8491C67.192 36.8685 67.1243 36.8703 67.0597 36.8541C66.9952 36.838 66.9363 36.8045 66.8893 36.7574C66.7472 36.5881 66.5942 36.4282 66.4314 36.2787C65.6868 35.611 64.8421 35.0646 63.9281 34.6593C62.6942 34.1527 61.3616 33.9332 60.0306 34.0176C58.7392 34.0993 57.4784 34.4459 56.3266 35.0361C55.1923 35.6584 54.1954 36.5037 53.3959 37.5213C52.5548 38.5687 51.9476 39.7842 51.6151 41.0861C51.3409 42.3244 51.3098 43.6043 51.5235 44.8545C51.5235 45.0684 51.5235 45.099 51.3403 45.0684C44.0848 43.999 38.1318 41.4222 33.2677 35.8917C33.054 35.6472 32.9421 35.6472 32.7691 35.8917C30.6525 39.1102 31.6802 44.2027 34.326 46.7184C34.6822 47.0545 35.0485 47.3804 35.4352 47.686C34.2221 47.5998 33.0387 47.2708 31.955 46.7184C31.7515 46.586 31.6395 46.6573 31.6294 46.9017C31.6005 47.2406 31.6005 47.5814 31.6294 47.9202C31.8417 49.5443 32.4812 51.0829 33.4824 52.3785C34.4837 53.6741 35.8107 54.6803 37.3279 55.2942C37.6978 55.4528 38.0832 55.5723 38.4778 55.6507C37.3548 55.872 36.203 55.9064 35.0689 55.7526C34.8246 55.7016 34.733 55.834 34.8246 56.0683C36.3205 60.1423 39.5667 61.3849 41.9478 62.0775C42.2735 62.1284 42.5991 62.1284 42.9654 62.2099C42.9654 62.2099 42.9654 62.2099 42.9044 62.271C42.2022 63.5543 39.3631 64.42 38.0606 64.8682C35.6832 65.7229 33.1483 66.0496 30.6321 65.8256C30.2352 65.7645 30.1437 65.7747 30.0419 65.8256C29.9401 65.8765 30.0419 65.9885 30.1538 66.0904C30.6626 66.4265 31.1714 66.7219 31.7006 67.0071C33.2759 67.867 34.9413 68.5502 36.6665 69.0441C45.601 71.5089 55.6549 69.6959 62.3609 63.0247C67.6321 57.7896 69.4842 50.5684 69.4842 43.337C69.4842 43.062 69.82 42.899 70.0133 42.7564C71.3469 41.7164 72.5226 40.4882 73.5037 39.1102C73.6736 38.9047 73.7607 38.6432 73.7479 38.3768C73.7479 38.2241 73.7479 38.2546 73.5546 38.3361Z" fill="white"/>
</svg>
